# xmcd CD database file
#
# Track frame offsets:
#	150
#	19901
#	36385
#	55464
#	79679
#	100447
#	118599
#	136319
#	152159
#	178954
#	200186
#
# Disc length: 3165 seconds
#
# Revision: 1
# Processed by: cddbd v1.5.2PL0 Copyright (c) Steve Scherf et al.
# Submitted via: CDex 1.70beta2
#
DISCID=a20c5b0b
DTITLE=Jeff Cascaro - Mother and Brother
DYEAR=2008
DGENRE=Blues
TTITLE0=I feel fine
TTITLE1=The sun is shining for our love
TTITLE2=Anyway
TTITLE3=Love is in the air
TTITLE4=The lady´s not amused
TTITLE5=Little Flower
TTITLE6=Follow you, Follow me
TTITLE7=Try
TTITLE8=When she sings to me
TTITLE9=Help the Poor
TTITLE10=Ella
EXTD=YEAR: 2008
EXTT0=
EXTT1=
EXTT2=
EXTT3=
EXTT4=
EXTT5=
EXTT6=
EXTT7=
EXTT8=
EXTT9=
EXTT10=
PLAYORDER=
